{"accessors":[{"bufferView":0,"componentType":5123,"count":77964,"max":[13928],"min":[0],"type":"SCALAR"},{"bufferView":1,"componentType":5126,"count":13929,"max":[7.0876569747924805,12.596392631530762,6.440903186798096],"min":[-7.099990367889404,-7.387327194213867,-7.340562343597412],"type":"VEC3"},{"bufferView":2,"componentType":5126,"count":13929,"max":[0.9998779296875,0.999969482421875,0.99993896484375],"min":[-0.999786376953125,-0.999969482421875,-0.99993896484375],"type":"VEC3"},{"bufferView":3,"componentType":5126,"count":13929,"max":[0.9898855686187744,0.9900710443034768],"min":[0.010114435106515884,0.00992894172668457],"type":"VEC2"}],"asset":{"generator":"Khronos Blender glTF 2.0 exporter","version":"2.0"},"bufferViews":[{"buffer":0,"byteLength":155928,"byteOffset":0,"target":34963},{"buffer":0,"byteLength":167148,"byteOffset":155928,"target":34962},{"buffer":0,"byteLength":167148,"byteOffset":323076,"target":34962},{"buffer":0,"byteLength":111432,"byteOffset":490224,"target":34962}],"buffers":[{"byteLength":601656,"uri":"data:application/octet-stream;base64,"}],"images":[{"mimeType":"image/jpeg","name":"gourd_diffuse.png","uri":"data:image/jpeg;base64,"},{"mimeType":"image/jpeg","name":"gourd_normal","uri":"data:image/jpeg;base64,"}],"materials":[{"name":"Material","pbrMetallicRoughness":{"baseColorFactor":[0.6400000190734865,0.6400000190734865,0.6400000190734865,1.0],"baseColorTexture":{"index":0},"metallicFactor":0.0}},{"name":"Material.001","pbrMetallicRoughness":{"baseColorFactor":[0.6400000190734865,0.6400000190734865,0.6400000190734865,1.0],"baseColorTexture":{"index":1},"metallicFactor":0.0}}],"meshes":[{"name":"gourd-optimised.001","primitives":[{"attributes":{"NORMAL":2,"POSITION":1,"TEXCOORD_0":3},"indices":0,"material":0}]}],"nodes":[{"mesh":0,"name":"gourd-optimised.001"}],"samplers":[{}],"scene":0,"scenes":[{"name":"Scene","nodes":[0]}],"textures":[{"sampler":0,"source":0},{"sampler":0,"source":1}]}
